<?xml version="1.0" encoding="UTF-8" standalone="no"?>
<svg
   xmlns:dc="http://purl.org/dc/elements/1.1/"
   xmlns:cc="http://creativecommons.org/ns#"
   xmlns:rdf="http://www.w3.org/1999/02/22-rdf-syntax-ns#"
   xmlns:svg="http://www.w3.org/2000/svg"
   xmlns="http://www.w3.org/2000/svg"
   id="svg8"
   version="1.1"
   viewBox="0 0 72.749695 72.749695"
   height="72.749695mm"
   width="72.749695mm">
  <defs
     id="defs2" />
  <metadata
     id="metadata5">
    <rdf:RDF>
      <cc:Work
         rdf:about="">
        <dc:format>image/svg+xml</dc:format>
        <dc:type
           rdf:resource="http://purl.org/dc/dcmitype/StillImage" />
        <dc:title></dc:title>
      </cc:Work>
    </rdf:RDF>
  </metadata>
  <g
     transform="translate(-42.115051,-91.865784)"
     id="layer1">
    <rect
       ry="3.9701521"
       y="91.865784"
       x="42.115051"
       height="72.749695"
       width="72.749695"
       id="rect52"
       style="fill:#003baf;stroke-width:0.264583;fill-opacity:1" />
    <g
       transform="matrix(1.6969548,0,0,1.6969548,71.495378,119.54916)"
       id="g46"
       style="fill:#ffffff">
      <path
         d="M 0,0 H 24 V 24 H 0 Z"
         fill="none"
         id="path26" />
      <path
         d="M 21,6 H 3 C 1.9,6 1,6.9 1,8 v 8 c 0,1.1 0.9,2 2,2 h 18 c 1.1,0 2,-0.9 2,-2 V 8 C 23,6.9 22.1,6 21,6 Z m 0,10 H 3 V 8 H 21 Z M 6,15 h 2 v -2 h 2 V 11 H 8 V 9 H 6 v 2 H 4 v 2 h 2 z"
         id="path28" />
      <circle
         cx="14.5"
         cy="13.5"
         r="1.5"
         id="circle30" />
      <circle
         cx="18.5"
         cy="10.5"
         r="1.5"
         id="circle32" />
    </g>
    <g
       transform="matrix(1.7898319,0,0,1.7898319,42.115051,91.865784)"
       id="g24"
       style="fill:#ffffff">
      <path
         d="M 0,0 H 24 V 24 H 0 Z"
         fill="none"
         id="path10" />
      <path
         d="M 20,8 H 17.19 C 16.74,7.22 16.12,6.55 15.37,6.04 L 17,4.41 15.59,3 13.42,5.17 C 12.96,5.06 12.49,5 12,5 11.51,5 11.04,5.06 10.59,5.17 L 8.41,3 7,4.41 8.62,6.04 C 7.88,6.55 7.26,7.22 6.81,8 H 4 v 2 H 6.09 C 6.04,10.33 6,10.66 6,11 v 1 H 4 v 2 h 2 v 1 c 0,0.34 0.04,0.67 0.09,1 H 4 v 2 h 2.81 c 1.04,1.79 2.97,3 5.19,3 2.22,0 4.15,-1.21 5.19,-3 H 20 V 16 H 17.91 C 17.96,15.67 18,15.34 18,15 v -1 h 2 v -2 h -2 v -1 c 0,-0.34 -0.04,-0.67 -0.09,-1 H 20 Z m -4,4 v 3 c 0,0.22 -0.03,0.47 -0.07,0.7 L 15.83,16.35 15.46,17 C 14.74,18.24 13.42,19 12,19 10.58,19 9.26,18.23 8.54,17 L 8.17,16.36 8.07,15.71 C 8.03,15.48 8,15.23 8,15 V 11 C 8,10.77 8.03,10.52 8.07,10.3 L 8.17,9.65 8.54,9 C 8.84,8.48 9.26,8.03 9.75,7.69 L 10.32,7.3 11.06,7.12 C 11.37,7.04 11.69,7 12,7 c 0.32,0 0.63,0.04 0.95,0.12 l 0.68,0.16 0.61,0.42 c 0.5,0.34 0.91,0.78 1.21,1.31 l 0.38,0.65 0.1,0.65 C 15.97,10.53 16,10.78 16,11 Z m -6,2 h 4 v 2 h -4 z m 0,-4 h 4 v 2 h -4 z"
         id="path12" />
    </g>
  </g>
</svg>
